<?xml version="1.0" encoding="utf-8"?>
<!-- Generator: Adobe Illustrator 21.0.0, SVG Export Plug-In . SVG Version: 6.00 Build 0)  -->
<svg version="1.1" id="Layer_1" xmlns="http://www.w3.org/2000/svg" xmlns:xlink="http://www.w3.org/1999/xlink" x="0px" y="0px"
	 viewBox="0 0 259 165" style="enable-background:new 0 0 259 165;" xml:space="preserve">
<style type="text/css">
	.st0{fill:#FDD838;}
	.st1{fill:#E0E1E0;}
</style>
<path class="st0" d="M167.3,41.5c-4.5,0-7.1,2.5-8.1,8c-1.4,8.1-5,12.2-10.7,12.2c-3,0-5-0.4-6.9-0.8c-1.6-0.3-2.9-0.6-4.7-0.6
	c-7,0-8.1,6.1-8.1,9.8c0,0.7-0.6,1.2-1.2,1.2s-1.2-0.6-1.2-1.2c0-7.7,4-12.3,10.6-12.3c2,0,3.5,0.3,5.2,0.7c1.8,0.4,3.6,0.8,6.3,0.8
	c3.5,0,5.9-2,7.3-6.2c-5.9-0.3-12.3-2.9-12.3-9.9c0-4.5,3.2-9.7,8.5-10.7c0.7-0.1,1.3,0.3,1.5,1c0.1,0.7-0.3,1.3-1,1.5
	c-4,0.7-6.4,4.8-6.4,8.2c0,6.8,8.3,7.4,10.5,7.4c0.1-0.5,0.2-0.9,0.3-1.4c1.2-6.7,4.7-10.1,10.5-10.1c0.9,0,1.9,0.1,2.8,0.4
	c-0.8-6.7-7.6-16.8-20.1-16.8c-8.3,0-10.2,4.4-10.3,4.4c-0.3,0.6-1,0.9-1.6,0.7c-0.6-0.3-0.9-1-0.7-1.6c0.1-0.2,1.3-2.9,5.3-4.6
	c-1.6-1.6-5.1-4.1-10.3-4.1c-5.1,0-7.8,2.1-8.9,3.3c2,2,2.8,4,2.9,4.2c0.2,0.6-0.1,1.4-0.7,1.6c-0.6,0.2-1.4-0.1-1.6-0.7
	c-0.1-0.3-2.8-6.8-11.4-6.8c-4.2,0-7.7,1.6-9.8,4.4c-2.2,3-2.7,7-1.4,11.5c1.7,5.8-0.5,7.9-0.7,8.1c-0.2,0.2-0.5,0.3-0.8,0.3
	c-0.4,0-0.7-0.1-0.9-0.4c-0.5-0.5-0.4-1.3,0.1-1.8h0c0,0,1.2-1.4,0-5.5c-0.4-1.3-0.6-2.7-0.7-4c-0.6-0.1-1.6-0.3-2.7-0.3
	c-3.4,0-20.6,1-20.6,21.5c0,8.5,3.1,22.7,24.1,22.7c3.4,0,6.4-0.8,8.1-1.4c-0.8-1.8-1.2-3.8-1.2-5.8c0-11.8,8.6-17,15-18.4
	c0.7-1.8,1.7-5.3,0.6-7.3c-0.3-0.6-0.1-1.4,0.5-1.7c0.6-0.3,1.4-0.1,1.7,0.5c1.4,2.5,0.7,5.9,0,8.1c0.3,0,0.5,0,0.8,0
	c8.1,0,11.9,1.2,12.1,1.2c0.7,0.2,1,0.9,0.8,1.6c-0.2,0.7-0.9,1-1.6,0.8c-0.1,0-3.7-1.1-11.3-1.1c-0.7,0-1.5,0.1-2.3,0.2
	c0,0,0,0,0,0c-5.6,1-13.7,5.4-13.7,16.2c0,3.3,1.3,6.3,3.9,8.9c3.5,3.5,9.4,6,14.2,6c7.8,0,11.9-4.3,16.3-8.8
	c4.5-4.6,9.1-9.4,17.7-9.4c1.4,0,2.6,0,3.1,0c0-0.4,0-0.8,0-1.2c0-7.4,4.2-9.8,4.4-9.9c0.6-0.3,1.4-0.1,1.7,0.5
	c0.3,0.6,0.1,1.4-0.5,1.7c-0.1,0.1-3.1,1.9-3.1,7.7c0,5.3,3,5.9,3.4,5.9c0.7,0.1,1.2,0.7,1.1,1.4c-0.1,0.6-0.6,1.1-1.2,1.1
	c0,0-0.1,0-0.1,0c-1.5-0.1-4-1.4-5.1-4.7c-0.1,0-0.2,0-0.3,0c0,0-1.6,0-3.3,0c-7.5,0-11.6,4.2-15.9,8.6c-3.1,3.2-6.3,6.4-10.8,8.2
	c1.1,1.9,5.2,7.7,12.8,7.7c8.2,0,12.8-6.8,13.6-9.7c-4.4-0.9-6.9-2.8-7-2.9c-0.5-0.4-0.7-1.2-0.2-1.8c0.4-0.5,1.2-0.7,1.8-0.2
	c0,0,3.8,2.8,10,2.8c6,0,14.9-5.6,14.9-21C179.5,48.1,173.3,41.5,167.3,41.5z M134.6,42.3c-0.7,0.1-1.3-0.4-1.4-1.1
	c-0.8-6-4.4-9-10.8-9c-5.4,0-9.1,3.8-10.4,10.7c-1.6,9.2-5.7,13.4-13,13.4c-0.3,0-0.6,0-0.9-0.1c0,0-0.1,0-0.1,0
	c-1,0.2-1.7,0.6-2.1,1.3c-1.1,1.6-0.5,4.1-0.5,4.2c0.2,0.7-0.3,1.3-0.9,1.5c-0.1,0-0.2,0-0.3,0c-0.6,0-1.1-0.4-1.2-1
	c0-0.1-0.8-3.6,0.8-6.1c0.2-0.3,0.4-0.6,0.7-0.9c-4.7-2.2-6.2-7.8-6.2-11.1c0-0.7,0.5-1.3,1.2-1.3c0.7,0,1.3,0.5,1.3,1.2
	c0,0.4,0.3,9.6,8.2,9.6c6.1,0,9.1-3.3,10.6-11.3c0.3-1.8,0.8-3.4,1.4-4.9c0-0.2,0.1-0.4,0.2-0.6c0.1-0.1,1.7-2.6-0.3-6
	c-0.4-0.6-0.2-1.4,0.4-1.7c0.6-0.4,1.4-0.2,1.7,0.4c0.7,1.1,1,2.1,1.2,3.1c2.2-2,4.9-3.1,8.1-3.1c7.6,0,12.3,4,13.3,11.2
	C135.7,41.6,135.2,42.2,134.6,42.3z"/>
<g>
	<path class="st1" d="M30.4,141.5H16.7v-31.2h12.1c2.1,0,3.9,0.3,5.5,0.8c1.5,0.5,2.7,1.2,3.5,2.1c1.4,1.6,2.1,3.4,2.1,5.4
		c0,2.4-0.8,4.3-2.4,5.4c-0.5,0.4-0.9,0.7-1.1,0.8c-0.2,0.1-0.6,0.3-1.1,0.5c1.9,0.4,3.5,1.3,4.6,2.6c1.1,1.3,1.7,3,1.7,4.9
		c0,2.2-0.7,4.1-2.2,5.8C37.6,140.5,34.6,141.5,30.4,141.5z M23.7,122.9H27c1.9,0,3.4-0.2,4.3-0.6c0.9-0.4,1.4-1.3,1.4-2.7
		s-0.4-2.3-1.3-2.7c-0.9-0.4-2.3-0.7-4.4-0.7h-3.3V122.9z M23.7,135.6h4.8c2,0,3.5-0.2,4.5-0.7c1-0.5,1.5-1.5,1.5-2.9
		c0-1.4-0.5-2.4-1.6-2.9c-1.1-0.5-2.7-0.7-5.1-0.7h-4.1V135.6z"/>
	<path class="st1" d="M56.7,123.4c-2,0-3.5,0.7-4.5,2.1c-1,1.4-1.5,3.3-1.5,5.6v10.4h-6.7v-24h6.7v3.2c0.9-1,1.9-1.8,3.2-2.5
		c1.3-0.7,2.6-1,3.9-1.1l0,6.3H56.7z"/>
	<path class="st1" d="M79.9,141.5h-6.3v-2.9c-1.7,2.2-3.9,3.3-6.4,3.3s-4.7-0.7-6.4-2.2c-1.7-1.5-2.6-3.4-2.6-5.9
		c0-2.5,0.9-4.3,2.7-5.5c1.8-1.2,4.2-1.8,7.3-1.8h5v-0.1c0-2.6-1.4-3.8-4.1-3.8c-1.2,0-2.4,0.2-3.7,0.7c-1.3,0.5-2.4,1-3.3,1.7
		l-3-4.3c3.1-2.3,6.7-3.4,10.8-3.4c2.9,0,5.3,0.7,7.1,2.2c1.8,1.5,2.8,3.8,2.8,6.9V141.5z M73.2,132.3v-1.2H69c-2.7,0-4,0.8-4,2.5
		c0,0.9,0.3,1.5,1,2s1.6,0.7,2.7,0.7c1.2,0,2.2-0.4,3.1-1.1C72.7,134.5,73.2,133.5,73.2,132.3z"/>
	<path class="st0" d="M83.9,114.4c-0.8-0.8-1.1-1.7-1.1-2.8c0-1.1,0.4-2,1.1-2.8s1.7-1.1,2.8-1.1c1.1,0,2,0.4,2.8,1.1
		c0.8,0.8,1.1,1.7,1.1,2.8c0,1.1-0.4,2-1.1,2.8c-0.8,0.8-1.7,1.1-2.8,1.1C85.6,115.6,84.6,115.2,83.9,114.4z"/>
	<rect x="83.3" y="117.5" class="st1" width="6.7" height="24"/>
	<path class="st1" d="M100.4,128.1v13.4h-6.7v-24h6.7v2.7c2-2.1,4.3-3.1,6.8-3.1c2.5,0,4.6,0.9,6.4,2.7c1.7,1.8,2.6,4.2,2.6,7.1
		v14.6h-6.7v-13.6c0-3.7-1.4-5.5-4.1-5.5c-1.3,0-2.5,0.5-3.5,1.4C100.9,124.8,100.4,126.2,100.4,128.1z"/>
	<path class="st1" d="M129.1,141.8c-2.8,0-5.4-1.2-7.6-3.6c-2.2-2.4-3.3-5.4-3.3-9c0-3.6,1.1-6.5,3.3-8.8s4.7-3.4,7.6-3.4
		c2.9,0,5.3,1,7.1,3.1v-11.8h6.7v33.1h-6.7v-3.2C134.3,140.6,131.9,141.8,129.1,141.8z M124.9,129.5c0,1.9,0.6,3.5,1.7,4.7
		c1.2,1.2,2.5,1.9,4.1,1.9s2.9-0.6,3.9-1.9c1.1-1.2,1.6-2.8,1.6-4.8c0-1.9-0.5-3.6-1.6-4.9c-1.1-1.3-2.4-1.9-4-1.9
		c-1.6,0-2.9,0.7-4.1,2C125.4,126,124.9,127.6,124.9,129.5z"/>
	<path class="st1" d="M162,130.4v-12.9h6.7v24H162v-3.2c-1.7,2.3-3.8,3.5-6.4,3.5s-4.8-0.8-6.6-2.5c-1.8-1.7-2.7-4.1-2.7-7.3v-14.5
		h6.7v13.1c0,3.7,1.4,5.5,4.1,5.5c1.3,0,2.5-0.5,3.5-1.4C161.5,133.6,162,132.2,162,130.4z"/>
	<path class="st1" d="M194.4,128.5v12.9h-6.7v-13.1c0-1.9-0.3-3.3-0.9-4.2s-1.5-1.3-2.8-1.3c-1.3,0-2.4,0.5-3.4,1.4
		c-1,1-1.5,2.4-1.5,4.3v12.9h-6.7v-24h6.7v2.7c1.8-2.1,4-3.1,6.3-3.1c1.5,0,2.9,0.4,4.1,1.3c1.2,0.9,2.2,2,2.8,3.3
		c0.9-1.5,2.2-2.6,3.7-3.4c1.6-0.8,3.1-1.2,4.7-1.2c2.8,0,5.1,0.8,6.8,2.5c1.7,1.7,2.6,4.1,2.6,7.3v14.6h-6.7v-13.1
		c0-3.7-1.4-5.5-4.1-5.5c-1.3,0-2.5,0.5-3.5,1.4C194.9,125.2,194.4,126.7,194.4,128.5z"/>
	<path class="st1" d="M227.5,117.1c2.8,0,5.3,1.2,7.5,3.5c2.2,2.3,3.3,5.3,3.3,8.8c0,3.5-1.1,6.5-3.3,8.9c-2.2,2.4-4.7,3.6-7.7,3.6
		c-2.9,0-5.3-1.2-7.1-3.5v11.8h-6.7v-32.6h6.7v2.7C222.2,118.1,224.7,117.1,227.5,117.1z M220.1,129.5c0,1.9,0.5,3.5,1.6,4.8
		c1.1,1.2,2.4,1.9,3.9,1.9c1.5,0,2.9-0.6,4.1-1.9c1.2-1.2,1.7-2.8,1.7-4.7c0-1.9-0.6-3.6-1.7-4.9c-1.1-1.3-2.5-2-4.1-2
		c-1.6,0-2.9,0.6-4,1.9C220.6,125.9,220.1,127.5,220.1,129.5z"/>
</g>
</svg>
